<svg width="345" height="103" viewBox="0 0 345 103" fill="none" xmlns="http://www.w3.org/2000/svg">
<path d="M7.75195 8.79688H130.584" stroke="#A9F20E" stroke-width="2"/>
<path d="M7.75195 96.625H130.584" stroke="#A9F20E" stroke-width="2"/>
<path d="M8.69531 9.72363V97.5519" stroke="#A9F20E" stroke-width="2"/>
<path d="M129.117 9.72363V97.5519" stroke="#A9F20E" stroke-width="2"/>
<path d="M136.136 0.693359H122.627V14.0078H136.136V0.693359Z" fill="#FCFCFC" stroke="#A9F20E"/>
<path d="M136.136 88.5215H122.627V101.836H136.136V88.5215Z" fill="#FCFCFC" stroke="#A9F20E"/>
<path d="M14.5093 88.5225H1V101.837H14.5093V88.5225Z" fill="#FCFCFC" stroke="#A9F20E"/>
<path d="M14.5093 0.693359H1V14.0078H14.5093V0.693359Z" fill="#FCFCFC" stroke="#A9F20E"/>
<path d="M51.677 61.0361L61.7463 35.3604H66.9553L54.8762 64.7686H48.4778L36.3781 35.3604H41.5871L51.677 61.0361ZM69.4819 64.7686L81.561 35.3604H87.9594L100.059 64.7686H94.85L92.0199 57.6318H77.5004L74.6908 64.7686H69.4819ZM79.141 53.4277H90.3793L84.7602 39.1953L79.141 53.4277Z" fill="white"/>
<path d="M168.873 59.8896L177.264 38.4932H181.604L171.539 63H166.207L156.124 38.4932H160.464L168.873 59.8896ZM189.726 38.4932H207.584V42.1675H193.588V48.4736H206.525V52.1479H193.588V59.3257H207.926V63H189.726V38.4932ZM217.432 38.4932H235.291V42.1675H221.294V48.4736H234.231V52.1479H221.294V59.3257H235.632V63H217.432V38.4932ZM255.716 59.8896L264.107 38.4932H268.448L258.382 63H253.05L242.967 38.4932H247.308L255.716 59.8896ZM276.569 63V38.4932H280.432V63H276.569ZM288.621 63L298.687 38.4932H304.019L314.102 63H309.761L307.403 57.0527H295.303L292.962 63H288.621ZM296.67 53.5493H306.036L301.353 41.689L296.67 53.5493ZM322.274 38.4932H326.137V59.3257H340.834V63H322.274V38.4932Z" fill="white"/>
</svg>
